<?xml version="1.0" encoding="utf-8" ?>
<svg xmlns="http://www.w3.org/2000/svg" xmlns:xlink="http://www.w3.org/1999/xlink" width="1024" height="1024">
	<path fill="#FEFEFF" d="M0 0L1024 0L1024 1024L0 1024L0 0Z"/>
	<path fill="#171C61" d="M885.547 406.689C892.486 410.633 900.382 419.098 903.906 426.249C902.693 425.599 901.201 424.61 899.841 424.367C898.973 424.213 899.633 424.614 898.74 423.691C898.727 423.601 898.724 423.51 898.702 423.422C897.926 420.314 888.72 411.865 885.896 409.858L886.626 409.647C887.456 409.786 888.293 410.022 888.945 410.593L888.584 410.49L888.908 410.56C888.796 410.431 888.263 409.809 888.136 409.722C886.986 408.934 886.354 407.857 885.547 406.689Z"/>
	<path fill="#0E1B72" d="M845.345 974.62C859.742 973.913 874.559 974.645 888.995 974.715C900.055 974.768 911.993 973.951 922.946 975.168C924.078 976.169 923.983 976.445 924.282 977.955C917.626 978.423 848.48 978.259 846.023 977.531C845.242 976.37 845.35 976.045 845.345 974.62Z"/>
	<path fill="#0E1B72" d="M220.954 623.3C214.478 620.504 209.457 617.096 206.147 610.634Q205.859 610.058 205.599 609.469Q205.34 608.88 205.11 608.278Q204.88 607.677 204.681 607.065Q204.481 606.453 204.312 605.831Q204.144 605.21 204.006 604.581Q203.868 603.952 203.762 603.317Q203.656 602.682 203.581 602.042Q203.507 601.403 203.464 600.76Q203.421 600.118 203.411 599.474Q203.4 598.831 203.421 598.187Q203.443 597.544 203.496 596.902Q203.55 596.26 203.635 595.622Q203.72 594.984 203.837 594.351Q203.954 593.718 204.102 593.091Q204.251 592.464 204.43 591.846Q204.609 591.228 204.819 590.619Q205.04 589.961 205.294 589.316Q205.549 588.67 205.835 588.039Q206.122 587.407 206.44 586.791Q206.759 586.174 207.108 585.575Q207.458 584.975 207.837 584.394Q208.216 583.814 208.625 583.253Q209.033 582.692 209.47 582.153Q209.906 581.613 210.369 581.097Q210.832 580.58 211.321 580.088Q211.81 579.595 212.323 579.129Q212.836 578.662 213.373 578.222Q213.909 577.781 214.467 577.369Q215.025 576.957 215.603 576.573Q216.181 576.19 216.778 575.836Q217.375 575.483 217.989 575.16Q218.603 574.837 219.233 574.546C225.623 571.561 233.572 570.892 240.177 573.585C247.638 576.626 251.59 582.931 254.534 590.023L252.092 591.027L251.55 590.198C246.856 582.892 245.679 577.837 235.845 575.597C229.609 574.177 223.071 575.598 217.745 579.063Q217.236 579.39 216.743 579.742Q216.25 580.095 215.776 580.471Q215.301 580.847 214.846 581.246Q214.39 581.645 213.955 582.066Q213.52 582.487 213.106 582.928Q212.692 583.37 212.3 583.832Q211.909 584.294 211.54 584.775Q211.172 585.255 210.828 585.754Q210.484 586.252 210.165 586.766Q209.845 587.281 209.552 587.811Q209.259 588.34 208.992 588.884Q208.725 589.427 208.486 589.984Q208.246 590.54 208.034 591.107Q207.822 591.674 207.638 592.251Q207.455 592.828 207.3 593.413Q207.145 593.999 207.019 594.591Q206.906 595.12 206.819 595.654Q206.732 596.188 206.672 596.726Q206.612 597.264 206.579 597.804Q206.546 598.344 206.541 598.886Q206.535 599.427 206.556 599.967Q206.578 600.508 206.626 601.047Q206.674 601.586 206.75 602.122Q206.825 602.658 206.927 603.189Q207.029 603.721 207.158 604.247Q207.286 604.772 207.441 605.291Q207.596 605.809 207.776 606.32Q207.957 606.83 208.163 607.33Q208.369 607.831 208.599 608.32Q208.83 608.81 209.085 609.287Q209.34 609.765 209.618 610.229Q209.897 610.693 210.198 611.142C212.313 614.32 214.982 616.557 218.122 618.639C221.91 620.184 226.176 621.743 230.288 620.666C231.819 621.256 233.331 621.699 234.918 622.112C231.07 624.274 225.794 624.627 221.557 623.477C221.355 623.422 221.155 623.359 220.954 623.3Z"/>
	<path fill="#F55B39" d="M157.003 148.128C160.239 148.017 163.811 149.001 166.566 150.691C170.302 152.983 172.785 156.685 173.666 160.958Q173.833 161.751 173.919 162.558Q174.005 163.364 174.01 164.174Q174.015 164.985 173.939 165.792Q173.863 166.6 173.706 167.395Q173.55 168.191 173.314 168.966Q173.078 169.742 172.766 170.49Q172.454 171.239 172.069 171.952Q171.683 172.665 171.228 173.336C168.237 177.693 164.032 179.34 159.071 180.342C155.632 180.16 152.302 179.541 149.332 177.699C145.594 175.381 143.16 171.625 142.327 167.331Q142.17 166.53 142.095 165.718Q142.02 164.906 142.028 164.09Q142.036 163.274 142.128 162.463Q142.219 161.652 142.393 160.855Q142.567 160.058 142.821 159.283Q143.075 158.507 143.407 157.762Q143.738 157.017 144.145 156.309Q144.551 155.601 145.027 154.939C148.022 150.74 152.071 148.987 157.003 148.128Z"/>
	<path fill="#0E1B72" d="M130.07 327.652C130.334 326.962 130.491 325.817 131.212 325.502C134.749 323.958 144.178 328.542 147.455 330.187Q148.725 330.812 149.963 331.5Q151.2 332.189 152.401 332.938Q153.601 333.688 154.763 334.498Q155.924 335.307 157.043 336.175Q158.162 337.042 159.236 337.964Q160.31 338.887 161.336 339.863Q162.362 340.838 163.337 341.865Q164.312 342.891 165.235 343.965Q166.157 345.039 167.024 346.159Q167.89 347.278 168.7 348.44Q169.509 349.601 170.258 350.802Q171.008 352.004 171.695 353.241Q172.383 354.478 173.008 355.749Q173.632 357.02 174.192 358.32Q174.751 359.621 175.244 360.948Q175.738 362.275 176.163 363.625C180.898 378.318 179.263 395.478 172.088 409.116C164.696 423.166 152.567 434.012 137.279 438.604Q135.891 439.019 134.484 439.366Q133.078 439.712 131.655 439.989Q130.233 440.267 128.799 440.474Q127.365 440.681 125.923 440.817Q124.481 440.953 123.033 441.019Q121.586 441.084 120.137 441.078Q118.688 441.072 117.242 440.995Q115.795 440.918 114.354 440.771Q112.912 440.623 111.48 440.404Q110.048 440.186 108.628 439.898Q107.208 439.609 105.804 439.251Q104.4 438.893 103.016 438.467Q101.631 438.041 100.269 437.547Q98.907 437.053 97.5708 436.493Q96.2346 435.933 94.9275 435.308Q93.6204 434.683 92.3456 433.995C78.7861 426.607 67.7822 413.802 63.5865 398.771C61.5568 391.5 59.8833 371.368 63.7988 365.196C64.3263 364.365 64.4884 364.422 65.3262 364.037C66.3544 364.31 66.647 364.377 67.4712 365.105C67.3999 366.253 67.1112 366.97 66.6665 368.001C62.3683 377.967 64.8669 393.188 68.8188 402.922C74.6528 417.291 85.7337 428.009 100.008 433.981Q101.201 434.478 102.416 434.916Q103.632 435.354 104.868 435.732Q106.104 436.11 107.356 436.427Q108.609 436.744 109.876 436.999Q111.143 437.254 112.42 437.447Q113.698 437.639 114.984 437.769Q116.269 437.899 117.56 437.965Q118.85 438.032 120.142 438.035Q121.435 438.038 122.725 437.978Q124.016 437.918 125.303 437.795Q126.589 437.671 127.868 437.485Q129.146 437.299 130.414 437.05Q131.682 436.802 132.937 436.491Q134.191 436.18 135.428 435.809Q136.666 435.437 137.884 435.005Q139.102 434.573 140.297 434.082Q141.617 433.542 142.907 432.937Q144.198 432.332 145.456 431.662Q146.715 430.992 147.938 430.259Q149.161 429.527 150.346 428.734Q151.53 427.94 152.673 427.088Q153.816 426.236 154.915 425.328Q156.013 424.419 157.064 423.456Q158.116 422.493 159.117 421.478Q160.118 420.463 161.067 419.399Q162.016 418.335 162.909 417.224Q163.803 416.114 164.64 414.959Q165.476 413.805 166.254 412.61Q167.031 411.415 167.747 410.182Q168.463 408.949 169.116 407.682Q169.768 406.414 170.356 405.115Q170.944 403.817 171.466 402.49C176.898 388.884 177.194 372.984 171.218 359.506Q170.683 358.294 170.089 357.11Q169.495 355.925 168.843 354.772Q168.191 353.618 167.483 352.498Q166.775 351.378 166.013 350.295Q165.251 349.211 164.436 348.166Q163.622 347.121 162.757 346.118Q161.892 345.114 160.978 344.154Q160.065 343.195 159.105 342.281Q158.145 341.368 157.142 340.503Q156.138 339.638 155.093 338.823Q154.048 338.008 152.965 337.246Q151.881 336.484 150.761 335.776Q149.641 335.069 148.487 334.417Q147.334 333.765 146.149 333.171Q144.965 332.577 143.753 332.042Q142.541 331.507 141.304 331.032C137.722 329.677 133.986 328.791 130.275 327.873L130.07 327.652Z"/>
	<path fill="#0E1B72" d="M100.233 378.629C104.089 378.456 107.459 378.816 110.895 380.718C115.214 383.11 118.152 387.241 119.325 392.007C120.448 396.569 119.954 401.548 117.432 405.57C114.587 410.107 110.576 411.85 105.608 413.031C102.075 413.227 98.9763 413.015 95.7176 411.504Q95.3133 411.316 94.9193 411.108Q94.5252 410.899 94.1425 410.671Q93.7597 410.442 93.3892 410.194Q93.0188 409.947 92.6616 409.68Q92.3044 409.413 91.9615 409.128Q91.6186 408.843 91.2908 408.541Q90.963 408.239 90.6513 407.921Q90.3396 407.602 90.0447 407.268Q89.7498 406.933 89.4726 406.584Q89.1954 406.235 88.9365 405.872Q88.6777 405.509 88.4379 405.133Q88.1982 404.758 87.9781 404.37Q87.7581 403.982 87.5584 403.584Q87.3586 403.185 87.1797 402.777Q87.0008 402.369 86.8432 401.952Q86.6857 401.535 86.5498 401.11C85.1272 396.628 85.7805 391.8 88.0574 387.718C90.7295 382.927 95.0156 380.028 100.233 378.629Z"/>
	<path fill="#FEFEFF" d="M104.837 392.058C105.474 391.868 106.208 391.919 106.861 392.026C108.328 392.265 108.5 392.443 109.341 393.566C109.636 395.371 109.045 396.968 107.962 398.433C106.996 399.74 104.692 401.981 103.174 402.275L102.178 401.374C101.186 401.321 99.7122 401.01 98.7793 400.603C97.0675 399.854 95.6458 397.603 94.977 395.917C95.1039 394.438 95.1946 394.342 96.1427 393.187C97.3993 392.504 98.1704 392.61 99.5264 392.765C102.088 393.059 102.58 393.295 104.837 392.058Z"/>
	<path fill="#FEBF28" d="M72.1062 348.718C78.646 337.121 86.9063 327.624 99.9222 323.403C106.335 321.324 115.248 320.343 121.619 322.98C124.298 324.088 126.609 325.933 129.198 327.224L130.07 327.652L130.275 327.873C130.777 332.88 129.668 335.655 126.969 339.741C120.06 342.348 111.595 342.507 104.264 343.632C93.5443 345.277 82.8647 347.352 72.1062 348.718Z"/>
	<path fill="#7FCDC8" d="M883.795 792.594C887.799 792.363 891.186 792.723 894.832 794.607Q895.64 795.02 896.404 795.512Q897.167 796.003 897.878 796.567Q898.59 797.131 899.242 797.763Q899.893 798.395 900.48 799.088Q901.066 799.781 901.581 800.529Q902.095 801.277 902.534 802.072Q902.972 802.867 903.329 803.702Q903.687 804.536 903.96 805.402C905.335 809.842 904.973 814.721 902.659 818.783C899.888 823.646 895.66 825.616 890.551 827.141C886.731 827.538 883.362 827.505 879.759 825.937C875.443 824.059 872.075 820.247 870.51 815.833Q870.359 815.418 870.229 814.995Q870.099 814.572 869.991 814.144Q869.883 813.715 869.798 813.281Q869.712 812.848 869.648 812.41Q869.585 811.973 869.544 811.532Q869.503 811.092 869.485 810.65Q869.466 810.209 869.471 809.767Q869.475 809.325 869.502 808.883Q869.529 808.442 869.579 808.003Q869.629 807.564 869.701 807.127Q869.773 806.691 869.867 806.259Q869.962 805.828 870.078 805.401Q870.194 804.975 870.332 804.555Q870.47 804.135 870.63 803.722Q870.789 803.31 870.97 802.906Q871.15 802.503 871.351 802.109C874.054 796.814 878.388 794.372 883.795 792.594Z"/>
	<path fill="#0E1B72" d="M131.983 353.556C136.527 353.247 140.507 353.546 144.536 355.956C148.822 358.519 151.984 362.906 153.191 367.738C154.332 372.306 153.838 377.521 151.332 381.567C148.701 385.814 144.721 387.76 140.021 388.923C135.977 389.216 131.948 388.588 128.366 386.62C123.806 384.115 120.222 379.728 118.915 374.667C117.75 370.158 118.469 365.039 120.886 361.049C123.514 356.71 127.223 354.798 131.983 353.556Z"/>
	<path fill="#FEFEFF" d="M138.372 366.405C139.819 366.398 141.269 366.345 142.235 367.603C142.995 368.595 143.158 370.034 142.904 371.222C142.433 373.419 140.319 375.193 138.523 376.356C136.783 377.483 135.583 377.209 133.703 376.734C132.775 376.5 132.445 376.953 131.622 377.388C129.466 375.019 129.526 370.686 129.306 367.66C130.297 367.119 130.011 367.09 131.269 367.308C132.177 368.33 132.571 368.794 133.937 369.18C135.687 369.078 136.583 368.027 137.803 366.926L138.372 366.405Z"/>
	<path fill="#FEBF28" d="M254.534 590.023C259.599 592.317 264.691 598.082 266.671 603.25C269.294 610.092 269.424 617.865 266.257 624.56Q265.981 625.13 265.677 625.686Q265.373 626.241 265.042 626.781Q264.71 627.32 264.352 627.842Q263.993 628.365 263.609 628.868Q263.225 629.372 262.816 629.855Q262.407 630.339 261.974 630.801Q261.541 631.263 261.086 631.703Q260.63 632.143 260.153 632.56Q259.676 632.976 259.178 633.368Q258.681 633.76 258.164 634.126Q257.648 634.493 257.114 634.833Q256.579 635.173 256.028 635.485Q255.478 635.798 254.912 636.083Q254.346 636.367 253.767 636.623Q253.187 636.878 252.596 637.105Q252.004 637.331 251.402 637.527Q250.791 637.721 250.171 637.885Q249.551 638.049 248.923 638.183Q248.296 638.318 247.663 638.422Q247.03 638.526 246.393 638.599Q245.756 638.673 245.116 638.716Q244.476 638.758 243.835 638.771Q243.194 638.783 242.552 638.764Q241.911 638.746 241.272 638.696Q240.632 638.647 239.996 638.567Q239.36 638.487 238.728 638.377Q238.096 638.266 237.47 638.126Q236.844 637.985 236.226 637.815Q235.608 637.644 234.998 637.444Q234.389 637.245 233.79 637.016Q233.19 636.787 232.603 636.53Q232.015 636.272 231.441 635.987C226.412 633.433 222.766 629.164 221.1 623.788L220.954 623.3C221.155 623.359 221.355 623.422 221.557 623.477C225.794 624.627 231.07 624.274 234.918 622.112C235.437 622.06 235.634 622.056 236.112 621.957C241.161 620.907 245.966 616.822 248.758 612.627C253.043 606.189 253.693 598.433 252.092 591.027L254.534 590.023Z"/>
	<path fill="#FEBF28" d="M712.614 59.2349C713.968 59.2143 715.301 58.9814 716.375 59.8332C715.509 65.592 691.98 128.415 689.305 131.453L689.499 130.855L688.982 130.832L688.187 126.128C685.348 104.22 681.785 82.4085 678.955 60.4977Q695.779 59.7083 712.614 59.2349Z"/>
	<path fill="#7FCDC8" d="M707.176 209.004C713.84 208.791 727.821 212.489 734.881 213.954L791.554 225.924C788.063 234.252 786.276 244.182 783.959 252.959L781.722 261.258C757.292 243.304 731.817 226.704 707.176 209.004Z"/>
	<path fill="#FEFEFF" d="M218.122 618.639C214.982 616.557 212.313 614.32 210.198 611.142Q209.897 610.693 209.618 610.229Q209.34 609.765 209.085 609.287Q208.83 608.81 208.599 608.32Q208.369 607.831 208.163 607.33Q207.957 606.83 207.776 606.32Q207.596 605.809 207.441 605.291Q207.286 604.772 207.158 604.247Q207.029 603.721 206.927 603.189Q206.825 602.658 206.75 602.122Q206.674 601.586 206.626 601.047Q206.578 600.508 206.556 599.967Q206.535 599.427 206.541 598.886Q206.546 598.344 206.579 597.804Q206.612 597.264 206.672 596.726Q206.732 596.188 206.819 595.654Q206.906 595.12 207.019 594.591Q207.145 593.999 207.3 593.413Q207.455 592.828 207.638 592.251Q207.822 591.674 208.034 591.107Q208.246 590.54 208.486 589.984Q208.725 589.427 208.992 588.884Q209.259 588.34 209.552 587.811Q209.845 587.281 210.165 586.766Q210.484 586.252 210.828 585.754Q211.172 585.255 211.54 584.775Q211.909 584.294 212.3 583.832Q212.692 583.37 213.106 582.928Q213.52 582.486 213.955 582.065Q214.39 581.645 214.846 581.246Q215.301 580.847 215.776 580.471Q216.25 580.095 216.743 579.742Q217.236 579.39 217.745 579.063C223.071 575.598 229.609 574.177 235.845 575.597C245.679 577.837 246.856 582.892 251.55 590.198L252.092 591.027C253.693 598.433 253.043 606.189 248.758 612.627C245.966 616.822 241.161 620.907 236.112 621.957C235.634 622.056 235.437 622.06 234.918 622.112C233.331 621.699 231.819 621.256 230.288 620.666C226.176 621.743 221.91 620.184 218.122 618.639Z"/>
	<path fill="#FEBF28" d="M218.122 618.639C218.556 609.765 220.341 602.042 227.346 595.868C231.546 592.166 239.174 588.838 244.969 589.319C246.262 589.427 247.025 590.014 247.734 591.044C249.442 593.526 248.615 598.068 247.97 600.765C246.451 607.116 243.235 612.813 237.517 616.182C235.158 617.572 232.162 618.656 230.288 620.666C226.176 621.743 221.91 620.184 218.122 618.639Z"/>
	<path fill="#FEBF28" d="M812.08 139.936L812.604 140.075C814.327 142.649 818.895 173.183 819.768 179.119C808.423 178.475 797.003 178.67 785.641 178.653L736.75 178.506Q731.58 178.444 726.412 178.277C740.39 170.732 755.45 164.688 770.054 158.437C784.122 152.415 798.08 146.115 812.08 139.936Z"/>
	<path fill="#F55B39" d="M291.147 801.347C293.893 803.977 292.32 811.286 296.3 814.844C298.428 816.747 301.133 817.858 303.724 818.962C312.448 822.682 319.435 826.365 324.281 834.911C330.853 846.503 329.758 860.969 326.549 873.399C325.727 876.583 323.884 880.388 323.509 883.57C323.357 884.867 324.326 885.369 325.159 886.167C320.647 896.427 311.291 907.023 304.408 916.015C303.08 917.869 301.846 919.797 300.581 921.694C293.776 893.139 282.262 866.548 269.779 840.088C277.439 830.579 286.93 812.864 291.147 801.347Z"/>
	<path fill="#F55B39" d="M781.053 21.7192C801.126 39.4617 819.346 59.4363 839.787 76.7821Q797.697 99.5272 755.323 121.739C742.262 128.938 728.973 135.663 715.891 142.8C718.69 136.58 722.243 130.541 725.439 124.51Q735.118 106.061 745.227 87.8443L781.053 21.7192Z"/>
	<path fill="#0E1B72" d="M919.727 881.638C930.087 880.986 939.773 881.949 948.654 887.78C957.952 893.884 964.541 903.933 966.74 914.804C968.909 925.522 966.328 936.689 960.29 945.727C953.885 955.314 944.794 961.15 933.539 963.386Q932.518 963.567 931.49 963.698Q930.462 963.828 929.428 963.907Q928.394 963.986 927.358 964.014Q926.322 964.042 925.286 964.018Q924.249 963.994 923.215 963.918Q922.182 963.843 921.153 963.716Q920.124 963.589 919.103 963.412Q918.081 963.234 917.07 963.006Q916.059 962.777 915.061 962.499Q914.062 962.221 913.079 961.893Q912.095 961.565 911.129 961.189Q910.163 960.813 909.217 960.39Q908.271 959.966 907.347 959.496Q906.423 959.026 905.524 958.51Q904.625 957.994 903.752 957.435Q902.88 956.875 902.036 956.273Q901.186 955.656 900.366 954.998Q899.547 954.339 898.761 953.642Q897.975 952.945 897.223 952.21Q896.472 951.475 895.758 950.705Q895.043 949.934 894.367 949.13Q893.691 948.325 893.055 947.489Q892.419 946.652 891.825 945.785Q891.23 944.919 890.679 944.024Q890.128 943.13 889.62 942.209Q889.113 941.289 888.652 940.345Q888.19 939.401 887.775 938.436Q887.36 937.47 886.993 936.486Q886.625 935.501 886.306 934.5Q885.987 933.499 885.718 932.483Q885.448 931.467 885.228 930.44Q885.008 929.412 884.839 928.375C883.17 917.909 886.003 906.585 892.246 898.039C898.993 888.802 908.543 883.467 919.727 881.638Z"/>
	<path fill="#FEFEFF" d="M923.719 884.205C933.065 883.695 942.176 886.337 949.582 892.094Q950.338 892.679 951.065 893.3Q951.791 893.922 952.485 894.578Q953.18 895.235 953.841 895.925Q954.502 896.615 955.129 897.338Q955.755 898.06 956.345 898.812Q956.934 899.565 957.486 900.345Q958.037 901.126 958.55 901.933Q959.062 902.74 959.534 903.571Q960.005 904.403 960.435 905.256Q960.865 906.11 961.252 906.984Q961.639 907.858 961.982 908.75Q962.326 909.643 962.624 910.551Q962.923 911.459 963.176 912.38Q963.429 913.302 963.636 914.235Q963.844 915.168 964.004 916.111Q964.165 917.053 964.279 918.002Q964.391 918.951 964.454 919.905Q964.518 920.859 964.534 921.815Q964.55 922.771 964.519 923.726Q964.487 924.682 964.407 925.634Q964.328 926.587 964.2 927.534Q964.073 928.482 963.899 929.422Q963.724 930.362 963.503 931.292Q963.282 932.222 963.014 933.14Q962.747 934.057 962.433 934.961Q962.12 935.864 961.762 936.75Q961.404 937.637 961.002 938.504Q960.6 939.371 960.155 940.217Q959.71 941.064 959.224 941.886Q958.737 942.709 958.21 943.507Q957.682 944.304 957.116 945.074Q956.549 945.844 955.945 946.585C949.041 955.141 939.578 960.003 928.734 961.186C918.539 961.146 909.837 958.934 901.804 952.351Q901.048 951.738 900.323 951.087Q899.598 950.437 898.907 949.752Q898.215 949.067 897.558 948.348Q896.901 947.63 896.28 946.88Q895.659 946.13 895.076 945.35Q894.493 944.57 893.95 943.762Q893.406 942.954 892.903 942.121Q892.4 941.287 891.938 940.43Q891.477 939.572 891.059 938.693Q890.64 937.814 890.266 936.915Q889.891 936.016 889.562 935.1Q889.232 934.184 888.948 933.253Q888.665 932.321 888.427 931.377Q888.19 930.433 887.999 929.478Q887.809 928.523 887.665 927.56Q887.522 926.597 887.427 925.628Q887.348 924.679 887.316 923.727Q887.284 922.775 887.299 921.822Q887.314 920.87 887.376 919.919Q887.438 918.969 887.547 918.022Q887.656 917.076 887.811 916.136Q887.966 915.197 888.168 914.266Q888.369 913.335 888.616 912.415Q888.863 911.495 889.156 910.588Q889.448 909.681 889.784 908.79Q890.121 907.899 890.501 907.026Q890.881 906.152 891.303 905.299Q891.726 904.445 892.19 903.613Q892.655 902.782 893.159 901.974Q893.664 901.166 894.208 900.384Q894.752 899.602 895.334 898.848Q895.916 898.094 896.534 897.369C903.504 889.216 913.176 885.063 923.719 884.205Z"/>
	<path fill="#F55B39" d="M920.477 896.605C927.084 896.142 933.142 896.348 939.142 899.57C945.498 902.982 949.948 909.133 951.756 916.067Q951.93 916.739 952.071 917.418Q952.211 918.097 952.317 918.783Q952.423 919.469 952.495 920.159Q952.566 920.849 952.602 921.542Q952.639 922.235 952.64 922.929Q952.642 923.623 952.609 924.316Q952.575 925.009 952.507 925.699Q952.439 926.39 952.336 927.076Q952.233 927.762 952.095 928.442Q951.958 929.122 951.787 929.795Q951.615 930.467 951.41 931.13Q951.205 931.793 950.967 932.444Q950.729 933.096 950.458 933.735Q950.187 934.374 949.885 934.998Q949.582 935.622 949.248 936.231Q948.915 936.839 948.551 937.43C944.364 944.168 938.081 947.646 930.614 949.427C924.673 950.373 919.127 949.818 913.73 946.989C907.151 943.539 901.925 937.161 899.944 929.984Q899.768 929.325 899.625 928.658Q899.481 927.991 899.372 927.318Q899.262 926.645 899.185 925.967Q899.109 925.29 899.067 924.609Q899.024 923.928 899.015 923.246Q899.007 922.564 899.032 921.883Q899.057 921.201 899.116 920.522Q899.175 919.842 899.268 919.167Q899.36 918.491 899.487 917.821Q899.613 917.15 899.772 916.487Q899.931 915.824 900.123 915.17Q900.315 914.515 900.54 913.871Q900.764 913.227 901.02 912.595Q901.276 911.963 901.563 911.344Q901.85 910.725 902.167 910.122Q902.485 909.518 902.832 908.931C906.916 902.113 913 898.567 920.477 896.605Z"/>
	<path fill="#0E1B72" d="M903.906 426.249C909.48 435.708 915.41 442.651 916.406 454.064C917.196 463.107 914.79 472.45 908.871 479.45C903.647 485.628 896.357 488.833 888.404 489.421C873.654 490.512 852.425 480.107 841.364 470.511C832.092 462.467 824.609 449.576 823.816 437.176Q823.767 436.333 823.761 435.488Q823.754 434.643 823.789 433.799Q823.824 432.955 823.9 432.114Q823.977 431.272 824.095 430.436Q824.213 429.599 824.372 428.77Q824.532 427.94 824.732 427.119Q824.932 426.299 825.172 425.489Q825.413 424.679 825.693 423.882Q825.973 423.085 826.292 422.303Q826.611 421.521 826.969 420.755Q827.326 419.99 827.721 419.243Q828.116 418.496 828.547 417.77Q828.978 417.043 829.445 416.339Q829.911 415.635 830.412 414.954Q830.913 414.274 831.447 413.619Q831.98 412.965 832.546 412.337C839.423 404.589 849.631 400.131 859.903 399.576C867.726 399.154 879.604 401.311 885.547 406.689C886.354 407.857 886.986 408.934 888.136 409.722C888.263 409.809 888.796 410.431 888.908 410.56L888.584 410.49L888.945 410.593C888.293 410.022 887.456 409.786 886.626 409.647L885.896 409.858C888.72 411.865 897.926 420.314 898.702 423.422C898.724 423.51 898.727 423.601 898.74 423.691C899.633 424.614 898.973 424.213 899.841 424.367C901.201 424.61 902.693 425.599 903.906 426.249Z"/>
	<path fill="#FEFEFF" d="M854.812 474.321C859.641 475.648 862.142 477.241 865.385 481.07C864.896 481.026 864.898 481.036 864.327 480.929C859.879 480.1 857.29 478.013 854.812 474.321Z"/>
	<path fill="#FEFEFF" d="M847.299 464.305L855.587 465.514L858.035 473.226C857.179 473.145 856.408 473.032 855.582 472.779C850.957 471.361 849.359 468.345 847.299 464.305Z"/>
	<path fill="#FEFEFF" d="M846.109 460.816C844.251 456.656 843.07 452.562 843.103 447.97C843.159 440.205 846.69 432.529 852.322 427.228C859.301 420.658 867.688 418.366 877.095 418.632C878.402 421.398 880.164 423.948 881.8 426.53C876.522 426.98 871.349 427.43 866.507 429.778C860.156 432.858 856.416 438.05 854.097 444.544L854.12 444.964C854.217 446.886 854.122 448.778 854.019 450.697C854.565 449.283 854.969 447.56 856.186 446.585C855.494 450.249 855.195 453.437 855.629 457.18L853.382 459.075C853.679 460.429 853.981 460.783 853.308 462.036C851.019 462.581 848.336 461.433 846.109 460.816Z"/>
	<path fill="#171C61" d="M854.097 444.544L854.12 444.964C854.217 446.886 854.122 448.778 854.019 450.697C854.565 449.283 854.969 447.56 856.186 446.585C855.494 450.249 855.195 453.437 855.629 457.18L853.382 459.075C852.322 453.767 852.301 449.725 854.097 444.544Z"/>
	<path fill="#FEFEFF" d="M886.865 429.718C891.405 430.819 895.373 431.755 897.991 436.061C900.741 440.581 900.322 446.796 899.045 451.755Q898.86 452.448 898.64 453.132Q898.42 453.815 898.166 454.486Q897.912 455.157 897.624 455.815Q897.337 456.472 897.017 457.115Q896.697 457.757 896.345 458.382Q895.993 459.008 895.61 459.615Q895.227 460.222 894.815 460.809Q894.402 461.396 893.96 461.961Q893.518 462.527 893.048 463.07Q892.578 463.612 892.082 464.13Q891.586 464.649 891.064 465.141Q890.542 465.634 889.996 466.1Q889.45 466.566 888.882 467.004Q888.313 467.442 887.723 467.851Q887.133 468.259 886.524 468.638Q885.914 469.017 885.286 469.364C878.258 473.345 869.44 474.331 861.564 472.868C860.437 470.597 859.412 468.368 858.544 465.98C868.587 465.44 877.687 463.487 884.578 455.511Q884.941 455.098 885.284 454.667Q885.626 454.237 885.946 453.789Q886.267 453.342 886.564 452.88Q886.862 452.417 887.136 451.94Q887.41 451.463 887.66 450.973Q887.91 450.483 888.135 449.981Q888.36 449.479 888.56 448.966Q888.759 448.454 888.933 447.932Q889.107 447.41 889.255 446.88Q889.402 446.35 889.523 445.813Q889.644 445.277 889.738 444.735Q889.832 444.193 889.899 443.647Q889.965 443.101 890.005 442.552Q890.044 442.003 890.056 441.453Q890.068 440.903 890.052 440.353Q890.036 439.803 889.993 439.255C889.814 436.878 889.054 434.76 888.199 432.555L886.865 429.718Z"/>
	<path fill="#FEFEFF" d="M882.425 429.4C884.376 430.957 885.431 433.274 886.564 435.455C887.821 441.082 887.212 446.09 884.137 451.112C880.545 456.978 874.447 460.529 867.84 461.944C864.266 462.709 860.743 462.694 857.107 462.605L855.629 457.18C855.195 453.437 855.494 450.249 856.186 446.585C857.51 443.527 858.909 440.563 861.039 437.972C866.659 431.134 874.261 430.303 882.425 429.4Z"/>
	<path fill="#FEFEFF" d="M882.165 425.527C881.984 425.309 881.799 425.094 881.622 424.873C880.31 423.239 879.387 421.141 878.415 419.287C879.745 419.223 880.686 420.174 881.793 420.88C882.175 420.223 882.005 420.612 882.224 419.682C887.962 419.135 895.764 425.222 899.978 428.733C907.919 435.349 912.72 444.121 913.529 454.456C914.185 462.845 911.993 470.949 906.448 477.388C901.571 483.052 895.037 486.083 887.632 486.585C880.319 487.081 873.253 484.904 867.756 480.009C866.481 478.873 865.263 477.669 864.046 476.472C874.086 476.72 885.155 475.423 892.782 468.124Q893.375 467.557 893.939 466.961Q894.503 466.365 895.037 465.742Q895.57 465.119 896.072 464.469Q896.574 463.82 897.042 463.146Q897.51 462.473 897.944 461.776Q898.378 461.08 898.777 460.363Q899.175 459.645 899.537 458.909Q899.899 458.173 900.224 457.419Q900.549 456.665 900.835 455.896Q901.121 455.128 901.369 454.345Q901.616 453.563 901.824 452.769Q902.032 451.975 902.2 451.172Q902.368 450.369 902.495 449.559Q902.623 448.748 902.709 447.932Q902.796 447.116 902.841 446.297Q902.887 445.477 902.891 444.657C902.888 439.821 901.647 434.871 898.016 431.459C895.517 429.11 892.044 429.366 888.908 428.592C886.55 427.845 884.37 426.634 882.165 425.527Z"/>
	<path fill="#FEFEFF" d="M848.3 472.341C839.686 465.888 833.187 457.911 829.373 447.769C826.257 439.483 825.879 430.574 829.668 422.424C833.483 414.219 840.736 407.872 849.214 404.819C863.588 399.642 873.056 403.732 885.896 409.858C888.72 411.865 897.926 420.314 898.702 423.422C898.724 423.51 898.727 423.601 898.74 423.691C895.246 421.427 891.61 418.712 887.629 417.387C878.131 414.226 867.269 414.667 858.291 419.114Q857.557 419.471 856.843 419.865Q856.128 420.259 855.434 420.688Q854.74 421.118 854.068 421.581Q853.396 422.045 852.749 422.541Q852.101 423.038 851.48 423.567Q850.858 424.096 850.264 424.655Q849.669 425.214 849.104 425.802Q848.538 426.391 848.003 427.007Q847.468 427.623 846.964 428.265Q846.46 428.907 845.99 429.574Q845.519 430.24 845.082 430.93Q844.646 431.619 844.244 432.33Q843.843 433.04 843.477 433.77Q843.112 434.5 842.784 435.247Q842.456 435.994 842.166 436.757Q841.876 437.52 841.624 438.296C837.522 450.9 842.776 461.267 848.3 472.341Z"/>
	<path fill="#F55B39" d="M210.508 854.686C210.867 847.609 212.337 840.583 211.817 833.487C210.239 811.917 200.869 786.312 219.869 769.082C227.098 762.527 236.45 760.837 245.908 761.415C259.569 762.25 274.633 768.311 283.762 778.767C288.676 784.394 290.893 790.303 291.702 797.699C283.178 809.848 278.019 825.067 268.547 837.923C258.945 820.938 250.258 803.836 239.326 787.59C236.553 783.469 233.881 778.942 230.524 775.272L230.04 775.217C229.656 776.131 229.546 776.265 229.971 777.235C231.772 781.343 235.687 785.698 238.197 789.502C244.114 798.468 249.901 807.586 254.993 817.052C242.642 813.371 229.471 809.037 216.782 806.92L216.572 807.261C226.302 813.381 244.774 815.621 256.439 819.794C261.66 827.817 285.697 875.742 285.55 881.508L284.574 881.927L282.906 882.299L282.547 882.951L286.966 884.909C293.661 900.894 298.026 918.237 301.324 935.219Q275.281 931.356 249.671 925.25C246.568 924.513 228.07 918.63 226.446 919.763C231.048 925.649 291.918 936.138 301.595 937.52Q303.375 949.519 303.954 961.635C304.12 965.097 303.665 968.799 304.095 972.189C304.252 973.433 304.464 973.865 305.209 974.813C306.179 974.664 306.067 974.844 306.773 974.032Q306.666 961.246 305.254 948.537Q303.842 935.829 301.139 923.331C309.687 913.921 321.895 898.25 327.585 886.778C343.126 895.204 355.944 905.071 361.082 922.828C364.709 935.362 362.212 948.272 355.885 959.471C352.563 965.351 348.368 970.054 343.477 974.658C330.711 975.648 317.348 974.874 304.523 974.831C287.858 974.774 271.08 975.224 254.432 974.615C236.947 961.057 232.141 951.929 225.809 931.016C225.988 929.281 225.927 927.817 225.701 926.089C225.813 913.627 226.499 908.123 235.817 899.147C237.641 897.39 239.365 895.752 240.334 893.352C245.031 881.719 216.069 870.076 211.495 857.645C211.446 857.513 211.402 857.378 211.356 857.245C211.248 856.387 210.809 855.5 210.508 854.686Z"/>
	<path fill="#FEFEFF" d="M214.338 851.35L214.897 851.533C223.874 854.42 232.544 859.935 241.236 863.735C255.508 869.976 270.644 875.004 284.574 881.927L282.906 882.299L282.547 882.951C276.862 881.805 270.31 878.204 264.918 875.965C249.881 869.718 233.998 863.944 219.898 855.727C217.789 854.498 216.082 853.046 214.338 851.35Z"/>
	<path fill="#0E1B72" d="M480.727 974.464C459.987 967.647 445.296 959.411 435.124 939.235C431.036 931.127 429.192 921.293 426.878 912.546C423.173 898.542 419.652 884.483 415.828 870.513C407.294 839.34 398.539 808.185 390.524 776.876L355.36 635.355L275.799 321.334L252.543 231C250.16 221.555 247.046 212.147 245.03 202.637C243.409 194.988 244.329 186.874 246.83 179.515C251.026 167.172 260.203 157.526 271.896 151.913Q274.157 150.834 276.506 149.961Q278.855 149.089 281.273 148.43Q283.69 147.771 286.157 147.33Q288.624 146.89 291.12 146.672C306.389 145.333 322.142 145.587 337.47 145.294L418.701 143.482L527.736 140.697C548.831 140.119 572.467 138.457 593.395 139.382C602.14 139.769 610.487 141.62 618.71 144.603C635.991 150.871 653.18 163.441 661.014 180.513C664.795 188.755 666.47 198.524 668.634 207.331L679.026 249.475L717.287 397.62L796.032 705.195L822.58 809.314L831.697 844.618C833.648 852.048 835.923 859.45 837.428 866.987C839.614 877.933 839.301 888.611 835.366 899.136Q834.908 900.389 834.389 901.618Q833.869 902.846 833.288 904.047Q832.708 905.248 832.068 906.419Q831.428 907.59 830.731 908.727Q830.034 909.864 829.28 910.965Q828.527 912.066 827.719 913.128Q826.912 914.19 826.052 915.21Q825.193 916.231 824.284 917.207Q823.374 918.183 822.417 919.112Q821.46 920.042 820.458 920.922Q819.456 921.802 818.411 922.632Q817.366 923.461 816.281 924.237Q815.196 925.013 814.073 925.734Q812.95 926.455 811.793 927.119Q810.636 927.782 809.447 928.388Q808.259 928.993 807.041 929.538C792.846 935.967 759.774 938.653 742.909 940.952L669.765 951.147C634.492 956.125 599.344 962.113 564.103 967.304C556.329 968.449 521.654 972.487 516.995 974.825L720.622 974.649L788.479 974.698C798.523 974.704 808.746 974.191 818.762 974.592C820.61 974.666 823.04 974.751 824.636 975.777L824.577 976.279C822.9 977.248 821.171 977.782 819.226 977.891C815.548 978.096 811.709 977.774 808.007 977.776L780.231 977.816L690.364 977.799L576.966 977.966C558.301 977.989 539.459 978.57 520.818 977.963C501.906 978.336 482.866 977.818 463.936 977.868L313.708 978.057L171.324 978.001C147.287 978.003 123.11 978.582 99.089 978.094C96.7106 978.045 93.3627 978.107 91.4528 976.565C91.5402 976.452 91.6122 976.324 91.7151 976.224C93.0956 974.881 96.2901 974.703 98.1396 974.599C106.996 974.104 116.236 974.698 125.142 974.693L185.3 974.533C172.984 969.286 156.907 961.31 150.764 948.547C146.899 940.517 149.695 934.232 152.35 926.564C157.204 912.55 131.476 912.28 124.135 896.899C120.502 889.288 121.276 883.445 125.619 876.478C126.768 874.634 128.206 872.725 128.846 870.638C130.948 863.779 123.262 858.11 120.409 852.452C118.188 848.048 117.57 843.493 119.191 838.784C120.849 833.971 124.398 829.176 129.17 827.122C137.265 823.639 146.478 828.935 153.973 831.83C158.047 829.854 161.087 826.291 165.532 824.966Q166.233 824.761 166.95 824.627Q167.668 824.493 168.396 824.432Q169.123 824.37 169.853 824.383Q170.583 824.395 171.308 824.48Q172.033 824.566 172.746 824.724Q173.459 824.882 174.152 825.111Q174.846 825.34 175.513 825.637Q176.179 825.934 176.813 826.297C187.889 832.597 191.669 850.001 194.965 861.294C200.099 856.811 203.809 855.193 210.508 854.686C210.809 855.5 211.248 856.387 211.356 857.245C211.402 857.378 211.446 857.513 211.495 857.645C216.069 870.076 245.031 881.719 240.334 893.352C239.365 895.752 237.641 897.39 235.817 899.147C226.499 908.123 225.813 913.627 225.701 926.089C225.927 927.817 225.988 929.281 225.809 931.016C232.141 951.929 236.947 961.057 254.432 974.615C271.08 975.224 287.858 974.774 304.523 974.831C317.348 974.874 330.711 975.648 343.477 974.658L436.744 974.667C451.337 974.616 466.162 975.126 480.727 974.464Z"/>
	<path fill="#FEFEFF" d="M279.719 266.583C281.719 266.355 284.224 265.932 286.04 266.928C288.673 270.278 292.208 284.645 291.949 288.96C291.836 290.835 291.033 291.598 289.705 292.736C287.445 292.694 285.846 292.732 284.055 291.17C279.925 287.568 277.728 275.862 277.66 270.455C277.635 268.441 278.37 267.885 279.719 266.583Z"/>
	<path fill="#FEFEFF" d="M292.13 310.396C293.851 310.574 295.907 310.994 297.25 312.167C298.222 313.015 298.541 314.191 298.892 315.371C303.308 330.199 338.531 464.072 338.3 466.435C338.099 468.491 335.957 470.216 334.554 471.486C333.477 471.483 332.353 471.477 331.287 471.322C329.991 471.134 328.927 470.509 328.285 469.348C325.459 464.244 320.281 440.135 318.235 432.413Q305.487 385.254 293.834 337.812C292.337 331.705 290.138 325.741 288.77 319.61C288.339 317.673 287.922 315.203 288.609 313.292C289.182 311.695 290.724 311.103 292.13 310.396Z"/>
	<path fill="#FEFEFF" d="M254.432 974.615L253.62 974.644C243.26 974.985 232.777 974.669 222.408 974.644C203.47 974.598 195.849 976.494 178.18 967.829C171.656 964.631 165.453 960.59 160.168 955.584C151.097 946.992 150.062 941.347 154.616 929.969C155.624 927.45 156.662 925.001 156.498 922.223C155.9 912.092 138.578 907.951 131.753 901.975C129.195 899.735 127.301 896.957 126.039 893.803C120.982 881.171 134.503 876.329 132.563 866.378C130.928 857.995 121.78 853.189 121.546 843.899C121.436 839.543 123.862 835.322 126.966 832.402Q128.111 831.342 129.467 830.57C138.716 825.264 145.377 834.844 153.939 834.511C159.388 834.3 162.634 827.074 170.65 827.673C182.642 828.57 187.494 847.298 190.3 856.705C191.201 859.725 191.724 863.513 193.89 865.897C194.29 866.023 194.699 866.426 195.09 866.274C196.434 865.751 198.863 862.105 200.281 861.038C203.551 858.579 207.441 857.941 211.356 857.245C211.402 857.378 211.446 857.513 211.495 857.645C216.069 870.076 245.031 881.719 240.334 893.352C239.365 895.752 237.641 897.39 235.817 899.147C226.499 908.123 225.813 913.627 225.701 926.089C225.927 927.817 225.988 929.281 225.809 931.016C232.141 951.929 236.947 961.057 254.432 974.615Z"/>
	<path fill="#0E1B72" d="M174.263 874.966C164.009 865.158 153.099 856.448 141.54 848.246L141.409 847.034C142.133 845.976 142.049 845.888 143.28 845.611C149.397 848.896 155.291 854.407 160.621 858.866Q170.834 867.271 180.425 876.38Q190.016 885.488 198.936 895.255C208.078 905.338 216.502 916.064 225.701 926.089C225.927 927.817 225.988 929.281 225.809 931.016C221.171 926.224 217.125 920.743 212.613 915.798C207.363 916.264 178.72 919.933 175.622 918.474L175.445 917.349L176.152 916.529C182.157 914.777 203.12 913.134 210.097 912.93C200.609 900.621 189.151 889.196 177.929 878.464C172.74 878.459 152.619 880.285 149.232 879.269C148.43 878.382 148.396 878.476 148.448 877.293C151.127 875.244 169.671 875.295 174.263 874.966Z"/>
	<path fill="#FEFEFF" d="M577.063 152.273C598.35 151.358 617.807 154.202 635.304 167.32C642.728 172.886 648.9 180.196 651.921 189.047C655.457 199.407 657.351 210.897 659.911 221.597C664.651 241.405 669.563 261.226 674.705 280.935L738.3 529.075L796.905 757.213C802.848 780.004 808.267 802.945 814.335 825.697C818.514 841.367 824.342 858.192 826.576 874.14C828.065 884.773 824.467 896.537 817.964 904.997C812.933 911.542 805.701 917.225 797.787 919.781C787.178 923.208 775.22 923.696 764.192 925.125C750.501 926.899 736.84 929.02 723.168 930.955L531.117 957.414Q527.568 957.843 523.997 957.989C508.541 958.645 494.47 952.765 483.239 942.267C475.735 935.253 470.846 926.948 467.846 917.162C465.698 910.152 464.244 902.861 462.43 895.753L453.762 862.716L427.499 761.204L344.07 435.663L300.177 267.513L288.404 224.065C286.074 215.275 282.638 205.538 282.443 196.4C282.248 187.287 285.59 177.648 292.024 171.08Q293.113 169.97 294.285 168.948Q295.457 167.926 296.704 166.997Q297.952 166.069 299.267 165.24Q300.583 164.411 301.959 163.686Q303.335 162.962 304.763 162.346Q306.191 161.731 307.662 161.227Q309.134 160.724 310.64 160.337Q312.146 159.949 313.677 159.679C323.941 157.891 335.113 158.507 345.533 158.289L399 157.039C458.34 155.55 517.714 153.096 577.063 152.273Z"/>
	<path fill="#0E1B72" d="M475.246 186.713C479.582 186.522 489.405 184.923 492.747 187.825C494.252 189.131 494.651 190.507 494.793 192.428C494.477 193.436 494.267 194.01 493.474 194.756C490.122 197.908 467.054 197.079 461.494 197.181C457.217 197.405 452.551 198.003 448.305 197.627C445.765 197.402 444.697 196.248 443.185 194.352L443.196 193.335L442.84 193.74C442.682 193.285 442.375 192.487 442.358 192.018C442.328 191.169 442.688 190.426 443.205 189.801C446.588 185.719 469.11 187.032 475.246 186.713Z"/>
	<path fill="#0E1B72" d="M645.988 883.61C650.808 883.111 655.813 883.914 660.046 886.336C665.172 889.27 668.948 894.396 670.444 900.087C671.881 905.554 671.136 911.474 668.083 916.27C664.612 921.721 659.413 924.129 653.323 925.424C648.39 925.598 644.12 925.034 639.766 922.458C634.391 919.277 630.297 913.903 628.968 907.77Q628.862 907.275 628.781 906.774Q628.7 906.274 628.644 905.771Q628.588 905.267 628.557 904.762Q628.526 904.256 628.52 903.75Q628.514 903.243 628.533 902.737Q628.552 902.231 628.597 901.726Q628.641 901.221 628.711 900.72Q628.781 900.218 628.875 899.72Q628.969 899.222 629.088 898.73Q629.207 898.237 629.351 897.752Q629.494 897.266 629.661 896.788Q629.829 896.309 630.019 895.84Q630.21 895.371 630.424 894.912Q630.638 894.453 630.875 894.005Q631.111 893.557 631.37 893.121Q631.628 892.685 631.908 892.263C635.297 887.12 640.157 884.794 645.988 883.61Z"/>
	<path fill="#0E1B72" d="M633.679 232.279C637.106 232.095 640.546 232.036 643.976 231.928C645.815 241.995 648.98 252.094 651.51 262.022L668.519 327.746Q694.969 433.107 722.476 538.197L773.391 737.567L790.505 806.017C793.612 818.712 796.095 831.841 799.929 844.323C791.688 846.344 782.657 846.866 774.229 848.106L717.631 856.421Q630.363 869.381 542.958 881.38L495.716 888.163C491.711 888.745 483.495 890.821 480.043 890.411C479.061 890.295 479.169 890.114 478.58 889.4C473.23 866.866 467.019 844.52 461.158 822.113L438.007 732.387L378.312 498.509Q353.794 407.022 330.84 315.129C324.432 290.196 317.103 265.431 311.107 240.405C324.975 239.134 339.286 239.371 353.225 239.096L415.344 237.632L633.679 232.279Z"/>
	<path fill="#FEFEFF" d="M632.883 235.727L641.308 235.557C646.805 255.465 651.346 275.735 656.55 295.739L711.299 508.582Q737.282 607.956 762.232 707.595Q779.955 774.6 795.844 842.063L535.452 879.38L501.24 884.309C496.213 885.064 487.332 887.444 482.525 886.763C481.637 886.638 481.565 886.023 481.118 885.321C476.003 864.145 470.077 843.085 464.602 821.99L432.098 695.302L315.453 243.516C343.513 242.245 371.602 242.132 399.678 241.414L632.883 235.727Z"/>
	<path fill="#171C61" d="M532.524 692.381C536.411 693.442 540.585 694.334 544.081 696.41L543.806 697.065L543.288 696.807C542.114 696.234 541.294 695.689 539.949 695.981L540.107 696.803L539.92 697.266C536.489 696.426 533.062 695.622 529.712 694.496L532.524 692.381Z"/>
	<path fill="#0E1B72" d="M592.522 519.908C595.987 515.451 602.612 509.024 607.824 506.679L609.463 507.519C605.292 510.514 601.972 514.909 597.834 517.694C596.101 517.874 595.237 518.376 593.751 519.227C593.344 519.459 592.931 519.68 592.522 519.908Z"/>
	<path fill="#171C61" d="M702.318 532.971C705.272 537.756 713.652 552.133 713.57 557.507L712.918 558.167C712.57 557.946 712.152 557.81 711.874 557.506C710.611 556.123 706.965 546.584 705.727 544.027C703.999 540.459 702.15 537.004 699.832 533.782C700.964 533.812 701.381 533.589 702.318 532.971Z"/>
	<path fill="#171C61" d="M592.522 519.908C592.931 519.68 593.344 519.459 593.751 519.227C595.237 518.376 596.101 517.874 597.834 517.694C586.958 528.852 580.07 540.593 575.744 555.614C575.064 559.33 574.37 563.033 573.904 566.784C573.856 569.341 574.257 573.031 573.559 575.415L572.224 575.542L571.555 574.918C571.056 571.997 571.599 569.149 571.975 566.239C572.227 562.378 572.966 558.65 573.703 554.857C576.517 543.633 583.142 527.322 592.522 519.908Z"/>
	<path fill="#0E1B72" d="M482.172 328.948L488.203 328.93C490.666 339.741 494.174 351.176 498.26 361.49L491.521 361.486C488.172 350.736 484.544 339.962 482.172 328.948Z"/>
	<path fill="#0E1B72" d="M563.725 288.819C565.116 288.805 565.982 288.846 567.312 289.347C568.948 290.872 569.257 293.364 569.812 295.465C571.519 295.408 573.904 295.078 575.447 295.791C576.65 296.346 577.262 296.886 577.789 298.056L577.082 298.989C575.266 299.87 573.387 299.598 571.428 299.511C572.38 303.037 573.712 309.325 576.532 311.797C577.506 312.651 578.45 312.557 579.658 312.531L580.522 312.505C582.836 312.455 583.265 313.073 584.871 314.612C583.933 315.816 582.957 316.801 581.501 317.331C579.213 318.165 576.307 317.893 574.161 316.767C569.01 314.066 567.861 304.821 566.401 299.565C564.329 299.537 562.415 299.611 560.594 298.505C559.697 295.57 564.158 296.52 565.159 294.409C564.517 292.549 564.076 290.754 563.725 288.819Z"/>
	<path fill="#0E1B72" d="M547.485 295.14C552.389 294.691 555.282 295.836 559.492 298.096C558.671 299.52 558.283 300.823 556.747 301.49C555.976 300.74 554.904 299.69 553.908 299.248C552.582 298.661 551.252 298.688 549.942 299.299C548.207 300.109 547.025 301.512 546.48 303.345Q546.378 303.678 546.312 304.021Q546.245 304.363 546.214 304.71Q546.182 305.057 546.187 305.406Q546.192 305.754 546.232 306.1Q546.272 306.447 546.348 306.787Q546.424 307.127 546.534 307.458Q546.644 307.789 546.788 308.106Q546.932 308.424 547.107 308.725C548.292 310.75 550.229 312.104 552.5 312.641C555.619 313.379 557.679 312.865 560.361 311.211C560.765 311.381 560.901 311.419 561.304 311.696C562.429 312.468 562.756 313.017 563.028 314.313C562.539 315.74 561.653 316.461 560.333 317.095C557.211 318.596 553.755 318.654 550.503 317.479C546.449 316.014 543.399 312.769 541.734 308.842C540.552 306.055 540.078 302.815 541.377 299.979C542.632 297.241 544.789 296.142 547.485 295.14Z"/>
	<path fill="#0E1B72" d="M497.459 289.854C498.688 289.804 499.472 289.888 500.634 290.297C501.134 290.86 501.645 291.179 501.746 291.939C502.713 299.197 506.684 294.364 510.705 297.444C511.343 298.592 511.338 299.163 511.223 300.459C509.177 301.352 506.439 301.18 504.22 301.292C505.303 304.87 506.107 309.348 508.79 312.087C510.482 313.814 511.836 313.878 514.157 313.958L514.827 313.974C516.248 314.905 516.157 315.682 516.623 317.277C516.196 317.641 515.76 318.003 515.285 318.303C513.61 319.357 510.367 319.841 508.464 319.144C502.13 316.826 501.949 307.822 499.311 302.788C498.382 301.014 496.345 301.71 494.568 301.283C493.531 300.218 493.159 299.746 492.82 298.237C493.739 295.882 496.213 297.693 497.845 296.199C497.863 295.301 497.836 294.615 497.609 293.736C497.213 292.205 496.879 291.429 497.459 289.854Z"/>
	<path fill="#0E1B72" d="M587.358 294.068C590.853 293.728 595.347 293.778 598.508 295.573C599.485 296.128 599.161 295.809 599.508 296.952L598.166 299.129C596.362 299.615 594.438 298.115 592.521 298.022C591.095 297.953 590.151 298.157 589.08 299.128C588.365 299.777 588.538 299.986 588.453 300.875C590.568 303.895 595.768 303.522 599.04 304.647C600.895 305.284 602.356 306.269 603.196 308.103C603.907 309.656 603.841 312.641 603.122 314.161C602.26 315.982 600.139 316.558 598.394 317.109C595.909 317.088 592.704 316.954 590.367 316.034C588.67 315.366 587.15 314.321 586.427 312.613L586.787 311.746C588.097 311.264 589.084 311.488 590.392 311.847C592.257 312.358 594.053 312.791 596.009 312.645C597.309 312.549 597.911 312.345 598.77 311.387C596.902 305.396 587.145 308.642 584.328 303.663C583.47 302.148 583.202 299.538 583.732 297.877C584.386 295.828 585.607 295.07 587.358 294.068Z"/>
	<path fill="#0E1B72" d="M455.797 329.724C457.385 329.602 458.718 329.534 460.283 329.86C463.047 334.792 466.51 350.065 468.371 356.47L483.739 356.104C484.283 357.704 485.627 360.134 484.941 361.652L463.814 362.242C461.072 351.778 457.221 340.952 455.167 330.393L455.797 329.724Z"/>
	<path fill="#0E1B72" d="M468.553 296.477C469.869 296.391 470.732 296.375 472.022 296.754C472.733 297.941 473.16 298.486 474.368 299.173L476.089 298.374C478.962 297.027 481.859 295.727 485.073 296.727C487.822 297.582 489.549 299.811 490.756 302.319C492.022 304.948 495.871 316.652 495.08 318.817C493.9 319.57 493.324 319.608 491.937 319.551C489.418 317.697 488.415 311.175 487.571 308.1C486.831 305.916 486.021 303.845 484.334 302.204C483.082 300.987 482.108 300.467 480.328 300.502C471.966 303.78 481.845 313.902 479.3 319.276C477.824 319.478 476.8 319.463 475.33 319.219C474.302 318.133 469.056 299.245 468.553 296.477Z"/>
	<path fill="#0E1B72" d="M534.55 327.738C538.197 327.646 547.349 326.272 549.93 328.688C550.836 329.536 550.984 330.392 551.01 331.566C548.955 333.492 542.395 332.709 539.564 332.662L547.109 359.39C545.126 359.844 542.826 359.654 540.79 359.675C538.788 350.694 536.195 341.785 533.595 332.959C529.635 332.872 526.376 333.125 522.861 331.091L522.608 329.827C522.696 329.736 522.769 329.63 522.871 329.555C526.126 327.167 530.743 327.724 534.55 327.738Z"/>
	<path fill="#0E1B72" d="M421.775 289.132C427.186 288.877 430.769 290.287 435.356 292.924L434.254 297.712Q432.688 296.757 431.053 295.926C428.187 294.491 424.29 293.266 421.134 294.517C419.599 295.125 418.431 296.285 417.784 297.8C416.44 300.94 417.133 304.812 418.453 307.84C420.002 311.397 422.817 314.62 426.536 315.96C429.896 317.17 433.468 316.487 436.602 314.989L438.258 313.904C439.561 313.964 439.783 314.127 440.893 314.842C441.373 315.987 441.698 316.558 441.152 317.812C440.479 319.36 438.762 320.405 437.233 320.924C432.456 322.544 426.586 321.39 422.282 318.981Q421.801 318.715 421.334 318.425Q420.867 318.135 420.414 317.822Q419.962 317.51 419.525 317.175Q419.089 316.841 418.67 316.485Q418.25 316.13 417.849 315.754Q417.448 315.378 417.066 314.983Q416.683 314.587 416.321 314.174Q415.959 313.76 415.617 313.329Q415.276 312.898 414.956 312.451Q414.637 312.004 414.339 311.541Q414.042 311.079 413.768 310.602Q413.494 310.125 413.244 309.636Q412.993 309.146 412.768 308.645Q412.542 308.143 412.341 307.631Q412.141 307.12 411.965 306.598Q411.79 306.077 411.641 305.548C410.682 302.018 410.579 298.013 412.556 294.802C414.616 291.459 418.105 289.975 421.775 289.132Z"/>
	<path fill="#0E1B72" d="M520.952 295.55C524.836 295.234 528.044 295.141 531.257 297.651C536.511 301.754 538.367 311.401 539.186 317.683C538.794 317.949 538.706 318.043 538.187 318.197C536.989 318.553 535.4 318.579 534.266 318.066L533.819 316.43C532.127 316.525 530.95 317.966 529.482 318.697C527.316 319.776 524.947 318.998 522.787 318.352C522.357 318.051 521.921 317.757 521.511 317.429C519.527 315.845 517.386 312.938 517.092 310.406C518.356 304.452 526.492 306.088 530.099 302.782C530.144 301.946 530.33 301.882 529.716 301.194C525.308 296.252 521.856 302.158 517.973 301.955C517.401 300.487 517.362 299.633 517.443 298.057C518.253 296.733 519.618 296.233 520.952 295.55Z"/>
	<path fill="#FEFEFF" d="M530.919 308.246C531.784 308.674 532.255 309.132 532.901 309.844C533.169 310.857 532.84 311.341 532.549 312.327C530.334 314.518 528.969 314.899 525.877 315.101C525.097 314.621 523.904 313.892 523.362 313.139C522.614 312.1 522.728 311.759 522.99 310.621C525.283 308.381 527.922 308.398 530.919 308.246Z"/>
	<path fill="#0E1B72" d="M507.041 327.593C508.999 327.474 510.839 327.604 512.729 328.141C514.615 328.677 517.294 329.254 518.32 331.07C516.604 336.373 509.197 331.099 505.107 333.334C504.319 334.281 503.847 335.373 504.023 336.639C504.678 341.322 517.716 343.217 521.668 345.928C523.987 347.518 525.228 349.781 525.652 352.548C525.958 354.544 525.697 356.872 524.296 358.435C521.907 361.102 517.458 361.158 514.144 361.309C510.223 360.875 506.818 360.082 503.539 357.776C502.836 356.553 502.659 355.977 502.724 354.565C504.203 352.808 511.492 356.591 515.356 355.849C517.28 355.48 519.18 354.691 520.25 353.043C520.212 352.888 520.196 352.725 520.136 352.577C518.462 348.505 508.51 346.707 504.779 344.671C501.82 343.055 498.923 340.55 498.065 337.155C497.619 335.393 497.723 333.299 498.806 331.777C500.698 329.118 504.019 328.192 507.041 327.593Z"/>
	<path fill="#0E1B72" d="M451.916 296.622C454.301 296.85 456.795 297.409 458.868 298.649C462.593 300.876 465.432 304.681 466.403 308.918C466.989 311.47 466.88 314.329 465.376 316.56C463.649 319.122 460.942 320.173 458.023 320.733C455.202 320.618 452.818 320.229 450.317 318.844C446.659 316.82 443.75 313.376 442.711 309.294C442.041 306.658 442.17 303.801 443.64 301.449C445.57 298.36 448.533 297.35 451.916 296.622Z"/>
	<path fill="#FEFEFF" d="M450.773 301.438C451.609 301.383 452.449 301.32 453.288 301.338C455.696 301.391 457.644 302.75 459.171 304.522C460.902 306.53 461.759 308.879 461.407 311.539C461.1 313.87 460.175 314.878 458.34 316.254Q457.761 316.331 457.179 316.385C454.809 316.595 452.841 316.058 451.066 314.432C449.027 312.564 447.929 310.126 447.972 307.352C448.013 304.734 448.915 303.202 450.773 301.438Z"/>
	<path fill="#7FCDC8" d="M539.92 697.266L540.107 696.803L539.949 695.981C541.294 695.689 542.114 696.234 543.288 696.807L543.806 697.065L544.081 696.41C559.692 702.797 573.307 714.114 584.184 726.81C586.304 729.284 588.992 732.069 590.19 735.129C590.293 735.393 590.38 735.664 590.476 735.932C589.959 736.989 589.851 736.869 588.874 737.403C578.623 738.467 568.19 739.914 558.063 741.821L555.414 742.274L553.963 735.571C553.281 732.745 552.406 729.955 551.599 727.162C550.401 722.625 548.971 718.155 547.581 713.674C546.455 709.372 543.681 699.529 539.92 697.266Z"/>
	<path fill="#171C61" d="M539.92 697.266L540.107 696.803L539.949 695.981C541.294 695.689 542.114 696.234 543.288 696.807L543.806 697.065L544.081 696.41C559.692 702.797 573.307 714.114 584.184 726.81C586.304 729.284 588.992 732.069 590.19 735.129C590.293 735.393 590.38 735.664 590.476 735.932C589.959 736.989 589.851 736.869 588.874 737.403C576.139 720.374 564.048 710.542 545.7 700.227C547.247 704.333 548.638 708.509 550.095 712.648C551.497 717.384 553.009 722.113 554.245 726.894L555.416 730.741C556.362 734.41 557.413 738.087 558.063 741.821L555.414 742.274L553.963 735.571C553.281 732.745 552.406 729.955 551.599 727.162C550.401 722.625 548.971 718.155 547.581 713.674C546.455 709.372 543.681 699.529 539.92 697.266Z"/>
	<path fill="#F55B39" d="M637.366 504.438C636.749 502.214 634.967 497.76 635.876 495.632L637.329 495.419C643.988 497.045 650.746 497.996 657.062 500.788Q660.104 505.109 663.272 509.339L665.24 507.747C671.934 517.258 678.554 526.745 684.681 536.638L690.953 534.718L692.998 536.349C695.251 535.412 697.474 534.424 699.832 533.782C702.15 537.004 703.999 540.459 705.727 544.027C706.965 546.584 710.611 556.123 711.874 557.506C712.152 557.81 712.57 557.946 712.918 558.167C703.28 559.759 693.473 560.714 683.775 561.901Q657.118 565.026 630.496 568.432C622.013 569.504 612.978 569.93 604.648 571.636L601.944 571.783L573.559 575.415C574.257 573.031 573.856 569.341 573.904 566.784C574.37 563.033 575.064 559.33 575.744 555.614C580.07 540.593 586.958 528.852 597.834 517.694C601.972 514.909 605.292 510.514 609.463 507.519Q611.449 509.652 613.324 511.882C614.645 512.113 615.108 512.73 616.02 513.642C616.844 513.127 616.556 513.4 616.977 512.933Q619.086 514.647 621.224 516.324C628.923 521.292 636.736 525.021 646.186 522.889C646.666 522.781 647.139 522.646 647.613 522.516C649.927 523.358 650.811 523.044 653.064 522.338C654.017 521.478 655.167 520.542 655.528 519.246C655.868 518.025 655.47 517.462 654.942 516.418C649.364 513.728 641.679 508.849 637.366 504.438Z"/>
	<path fill="#171C61" d="M613.324 511.882C614.645 512.113 615.108 512.73 616.02 513.642C616.844 513.127 616.556 513.4 616.977 512.933Q619.086 514.647 621.224 516.324L620.44 517.309C620.81 518.343 621.302 518.996 621.99 519.845C618.731 517.939 615.386 515.037 613.324 511.882Z"/>
	<path fill="#0E1B72" d="M621.224 516.324C628.923 521.292 636.736 525.021 646.186 522.889C646.666 522.781 647.139 522.646 647.613 522.516C649.927 523.358 650.811 523.044 653.064 522.338C650.58 524.329 647.929 525.464 644.764 525.891C636.971 526.942 628.23 524.618 621.99 519.845C621.302 518.996 620.81 518.343 620.44 517.309L621.224 516.324Z"/>
	<path fill="#171C61" d="M601.944 571.783C601.083 565.684 595.998 542.863 597.135 539.209L597.833 538.918C599.026 539.681 599.151 539.742 599.548 541.175C601.26 547.365 604.32 565.591 604.648 571.636L601.944 571.783Z"/>
	<path fill="#171C61" d="M663.272 509.339L665.24 507.747C671.934 517.258 678.554 526.745 684.681 536.638L690.953 534.718L692.998 536.349L683.868 539.459C680.848 535.634 678.336 531.127 675.644 527.048Q669.7 518.024 663.272 509.339Z"/>
	<path fill="#0E1B72" d="M478.074 632.935C479.476 626.618 481.284 620.797 487.093 617.13C493.695 612.963 501.788 614.052 508.841 611.085C513.923 608.946 519.953 603.025 525.695 604.293C526.908 605.256 527.502 605.892 527.652 607.489C527.98 610.981 526.419 614.914 525.37 618.202C529.538 618.852 534.938 619.425 537.582 623.182C538.558 624.568 538.936 626.173 538.602 627.839C537.788 631.897 534.207 634.253 531.007 636.386C535.726 646.447 539.715 661.804 535.924 672.726C534.096 677.994 530.674 681.19 525.804 683.655L527.769 691.234L532.524 692.381L529.712 694.496C533.062 695.622 536.489 696.426 539.92 697.266C543.681 699.529 546.455 709.372 547.581 713.674C548.971 718.155 550.401 722.625 551.599 727.162C552.406 729.955 553.281 732.745 553.963 735.571L555.414 742.274L534.661 745.791L532.241 746.146C509.078 749.656 485.679 751.94 462.574 755.751C461.691 755.994 460.867 756.107 459.957 756.194L459.386 755.587C460.782 738.344 469.339 720.676 481.191 708.237C490.766 698.189 492.722 700.673 497.623 686.344C497.88 684.258 498.575 682.076 499.052 680.018C491.142 678.129 482.236 672.318 477.969 665.317C476.457 662.838 476.366 659.974 476.358 657.145C472.585 653.709 468.825 649.446 468.665 644.047C468.584 641.29 469.75 638.657 471.724 636.741C473.423 635.093 475.974 634.017 478.074 632.935Z"/>
	<path fill="#FEFEFF" d="M499.052 680.018L501.196 680.523C507.535 683.856 516.51 687.187 523.713 687.072L523.891 687.88C524.743 691.653 527.038 693.47 528.036 696.754C529.867 702.777 528.991 710.976 529.186 717.307C517.505 711.671 506.198 705.593 493.786 701.684C495.849 698.595 497.562 695.811 498.367 692.117C498.243 689.812 499.141 688.194 497.623 686.344C497.88 684.258 498.575 682.076 499.052 680.018Z"/>
	<path fill="#171C61" d="M499.052 680.018L501.196 680.523C500.662 684.43 499.822 688.443 498.367 692.117C498.243 689.812 499.141 688.194 497.623 686.344C497.88 684.258 498.575 682.076 499.052 680.018Z"/>
	<path fill="#FEBF28" d="M529.712 694.496C533.062 695.622 536.489 696.426 539.92 697.266C543.681 699.529 546.455 709.372 547.581 713.674C548.971 718.155 550.401 722.625 551.599 727.162C552.406 729.955 553.281 732.745 553.963 735.571L555.414 742.274L534.661 745.791C527.2 736.191 502.631 717.119 491.58 711.638C490.586 710.273 487.364 708.858 485.836 707.927C487.65 706.364 489.564 704.973 491.496 703.563C505.464 706.977 518.202 714.387 531.006 720.712C530.975 711.896 530.757 703.257 529.712 694.496Z"/>
	<path fill="#FEFEFF" d="M493.941 639.827C505.749 643.418 517.434 641.688 528.889 637.48C529.46 639.803 530.142 642.032 530.912 644.293L530.871 644.71C533.676 653.53 536.31 664.98 531.699 673.644C529.668 677.461 526.333 680.183 522.141 681.289C513.893 683.464 505.295 678.656 498.316 674.796Q497.917 671.302 497.462 667.815C493.095 666.99 488.699 666.154 485.187 663.192C484.297 662.441 484.061 662.377 483.961 661.179C486.561 659.269 492.835 660.278 496.165 659.99C497.454 656.096 494.693 644.197 493.941 639.827Z"/>
	<path fill="#171C61" d="M526.089 658.562C524.023 659.208 522.08 659.702 519.915 659.234C518.69 658.97 519.1 659.266 518.506 658.318C520.161 656.884 522.355 656.836 524.445 656.503L526.089 658.562Z"/>
	<path fill="#0E1B72" d="M524.445 656.503C526.097 654.986 527.478 653.393 529.744 652.918L530.72 653.246C530.649 654.489 530.416 655.098 529.506 655.997C528.536 656.954 527.201 657.769 526.089 658.562L524.445 656.503Z"/>
	<path fill="#0E1B72" d="M511.023 648.242L511.943 649.5C512.074 650.725 512.311 651.53 511.557 652.622C510.906 653.565 509.414 654.246 508.272 654.317C506.672 654.417 505.921 653.757 504.727 652.85C504.704 651.528 504.442 650.642 505.187 649.509C506.381 650.335 507.196 650.791 508.627 651.175C510.046 650.457 510.256 649.607 511.023 648.242Z"/>
	<path fill="#171C61" d="M530.871 644.71C528.855 646.574 527.31 647.868 524.477 647.87C523.34 647.224 523.042 647.036 522.586 645.716C522.127 644.386 522.406 643.032 522.944 641.792C524.112 640.775 524.298 640.674 525.823 640.42L526.306 640.917C525.358 641.552 525.037 641.748 524.444 642.762C524.9 643.907 525.125 644.02 526.128 644.767C527.795 645.002 529.286 644.621 530.912 644.293L530.871 644.71Z"/>
	<path fill="#7FCDC8" d="M462.574 755.751C465.152 739.206 471.501 721.498 484.367 710.063L491.939 714.973Q503.636 722.544 514.485 731.288C520.439 736.159 526.139 741.479 532.241 746.146C509.078 749.656 485.679 751.94 462.574 755.751Z"/>
	<path fill="#0E1B72" d="M576.377 446.786C576.715 443.268 576.982 439.669 577.709 436.208C579.857 425.986 585.27 417.758 594.099 412.127C603.581 406.079 615.421 403.72 626.434 406.221C635.277 408.23 644.317 413.311 649.132 421.206C653.817 428.889 653.211 436.505 651.203 444.805C653.625 450.287 655.046 456.605 656.809 462.361C658.048 469.406 657.535 474.121 654.34 480.612C655.516 480.956 656.764 481.325 657.753 482.075C662.737 485.856 667.332 491.648 671.569 496.267C682.457 508.134 693.263 519.591 702.318 532.971C701.381 533.589 700.964 533.812 699.832 533.782C697.474 534.424 695.251 535.412 692.998 536.349L690.953 534.718L684.681 536.638C678.554 526.745 671.934 517.258 665.24 507.747L663.272 509.339Q660.104 505.109 657.062 500.788C650.746 497.996 643.988 497.045 637.329 495.419L635.876 495.632C634.967 497.76 636.749 502.214 637.366 504.438C641.679 508.849 649.364 513.728 654.942 516.418C655.47 517.462 655.868 518.025 655.528 519.246C655.167 520.542 654.017 521.478 653.064 522.338C650.811 523.044 649.927 523.358 647.613 522.516C647.139 522.646 646.666 522.781 646.186 522.889C636.736 525.021 628.923 521.292 621.224 516.324Q619.086 514.647 616.977 512.933C616.556 513.4 616.844 513.127 616.02 513.642C615.108 512.73 614.645 512.113 613.324 511.882Q611.449 509.652 609.463 507.519L607.824 506.679L609.536 505.212L609.56 504.783C597.316 507.067 594.937 513.558 579.577 509.265Q578.804 509.048 578.043 508.792Q577.282 508.537 576.534 508.244Q575.787 507.95 575.055 507.62Q574.323 507.289 573.609 506.922Q572.895 506.556 572.2 506.154Q571.505 505.752 570.831 505.315Q570.157 504.879 569.505 504.409Q568.854 503.939 568.227 503.438Q567.6 502.936 566.999 502.404Q566.398 501.871 565.825 501.309Q565.251 500.747 564.707 500.157Q564.162 499.567 563.648 498.951Q563.133 498.334 562.651 497.693Q562.168 497.051 561.718 496.386Q561.268 495.721 560.851 495.034Q560.435 494.348 560.054 493.641C555.806 485.947 555.101 476.976 557.567 468.588C560.607 458.249 567.097 451.839 576.377 446.786Z"/>
	<path fill="#FEFEFF" d="M647.494 489.047L651.767 489.218C653.447 489.298 654.763 489.214 656.053 487.961C656.67 487.362 657.216 486.639 657.743 485.96C672.334 500.06 687.045 515.457 698.473 532.275L690.953 534.718L684.681 536.638C678.554 526.745 671.934 517.258 665.24 507.747Q664.105 506.091 662.921 504.471C657.104 496.57 649.963 495.05 640.856 493.683C637.507 492.604 634.065 491.874 630.709 490.734C636.415 490.068 641.805 490.4 647.494 489.047Z"/>
	<path fill="#FEFEFF" d="M604.998 468.938C612.925 477.763 617.849 483.609 628.778 488.969C631 494.44 632.793 500.11 635.079 505.537C636.342 505.42 636.4 505.286 637.366 504.438C641.679 508.849 649.364 513.728 654.942 516.418C655.47 517.462 655.868 518.025 655.528 519.246C655.167 520.542 654.017 521.478 653.064 522.338C650.811 523.044 649.927 523.358 647.613 522.516C647.139 522.646 646.666 522.781 646.186 522.889C636.736 525.021 628.923 521.292 621.224 516.324Q619.086 514.647 616.977 512.933C615.017 510.308 612.863 507.757 611.686 504.669C613.353 502.995 614.591 501.686 614.641 499.207L613.275 498.132C613.09 495.703 613.082 492.92 612.484 490.567C610.687 483.494 605.591 476.183 604.998 468.938Z"/>
	<path fill="#0E1B72" d="M651.167 516.992C652.472 516.451 653.553 516.482 654.942 516.418C655.47 517.462 655.868 518.025 655.528 519.246C655.167 520.542 654.017 521.478 653.064 522.338C650.811 523.044 649.927 523.358 647.613 522.516C648.643 521.976 649.735 521.456 650.704 520.814C651.793 520.093 651.945 519.603 652.17 518.364L651.167 516.992Z"/>
	<path fill="#171C61" d="M637.366 504.438C641.679 508.849 649.364 513.728 654.942 516.418C653.553 516.482 652.472 516.451 651.167 516.992C646.446 515.267 638.179 509.297 635.079 505.537C636.342 505.42 636.4 505.286 637.366 504.438Z"/>
	<path fill="#FEFEFF" d="M634.756 424.227C646.619 437.941 649.376 448.137 654.507 465.081C655.452 477.173 650.811 476.095 650.001 482.25C649.973 482.462 649.769 483.289 649.707 483.548C647.065 485.382 644.594 486.298 641.397 486.747C630.431 488.286 620.618 481.96 613.279 474.471C611.278 472.428 609.365 469.537 607.036 467.924C606.183 467.333 606.2 467.552 605.251 467.739C601.92 467.948 599.721 470.764 596.088 469.825C594.411 469.391 593.111 468.318 592.193 466.872C591.133 465.201 590.355 462.633 591.019 460.674C591.429 459.464 592.054 458.491 593.289 458.004C595.667 457.067 598.079 458.27 600.168 459.336C601.286 458.191 602.033 457.673 602.087 456.041L602.552 455.806C615.31 449.51 627.866 447.553 633.225 432.191C634.128 429.603 634.573 426.955 634.756 424.227Z"/>
	<path fill="#0E1B72" d="M638.891 439.205C640.188 439.467 640.96 439.494 641.868 440.538C641.813 442.148 641.438 442.474 640.558 443.779C639.155 443.494 638.848 443.466 637.799 442.522C637.755 440.901 638.09 440.569 638.891 439.205Z"/>
	<path fill="#0E1B72" d="M623.064 454.319C624.787 454.514 625.597 454.861 626.792 456.205C627.909 457.461 628.278 458.309 628.228 459.931C626.668 459.392 624.419 458.663 623.402 457.278C622.551 456.119 622.76 455.577 623.064 454.319Z"/>
	<path fill="#0E1B72" d="M629.878 451.733C630.265 451.919 630.511 452.014 630.863 452.309C631.765 453.065 632.494 454.026 632.526 455.243C632.57 456.862 631.745 457.927 630.827 459.14C629.755 458.108 628.863 456.696 628.58 455.219C628.283 453.669 629.008 452.894 629.878 451.733Z"/>
	<path fill="#0E1B72" d="M600.168 459.336C601.286 458.191 602.033 457.673 602.087 456.041C603.607 458.052 605.258 459.89 605.842 462.392L605.615 463.542C604.333 463.591 603.906 463.306 602.982 462.471C601.968 461.554 601.063 460.372 600.168 459.336Z"/>
	<path fill="#0E1B72" d="M645.338 446.275C645.929 446.524 646.449 446.861 646.937 447.28C648.099 448.28 648.579 449.696 648.688 451.182C647.885 452.249 647.839 451.986 646.594 452.182C645.259 451.23 645.263 450.674 644.729 449.162L640.597 454.641C641.185 455.002 641.77 455.378 642.364 455.729C644.579 457.035 645.975 458.028 646.758 460.603C647.09 461.697 646.967 462.739 646.346 463.709C645.172 465.543 643.199 466.003 641.242 466.538C640.508 465.983 639.878 465.411 639.234 464.755L639.391 464.083C640.865 463.775 642.144 463.466 643.508 462.821C645.737 458.223 636.656 454.999 635.884 450.852C635.755 450.155 636.098 449.944 636.458 449.407C637.869 449.274 638.916 450.032 640.125 450.667L640.757 451.004C642.67 450.204 644.128 447.886 645.338 446.275Z"/>
	<path fill="#F55B39" d="M598.288 752.182L599.216 752.113C601.847 754.387 622.303 842.285 624.417 851.282C607.246 853.985 589.979 856.064 572.78 858.578Q532.259 864.779 491.649 870.362C489.995 869.045 468.42 782.68 465.443 771.778C490.65 768.922 515.845 764.767 540.907 760.855L598.288 752.182Z"/>
	<path fill="#FEBF28" d="M754.87 728.735L755.742 728.586C756.744 729.535 756.759 730.106 757.125 731.423C759.01 738.202 760.112 745.381 761.894 752.251L781.553 827.797Q735.585 834.117 689.745 841.307C674.15 843.696 658.557 846.409 642.882 848.234C642.308 848.23 641.898 848.015 641.369 847.809C638.484 843.406 632.905 817.644 631.225 810.891C626.154 790.502 621.372 769.998 615.844 749.729C626.566 748.78 637.433 746.662 648.09 745.072C683.226 739.83 719.773 732.652 754.87 728.735Z"/>
	<path fill="#FEBF28" d="M711.306 576.187C713.181 575.839 715.319 575.935 717.235 575.846Q733.453 643.961 751.382 711.647C706.671 718.211 662.208 726.248 617.383 732.058C615.653 732.352 614.218 732.643 612.484 732.273C609.715 728.339 601.034 688.968 598.838 680.382L576.401 593.656C598.276 591.26 620.112 588.137 641.927 585.245L711.306 576.187Z"/>
	<path fill="#FEFEFF" d="M705.002 641.187C706.041 640.954 707.541 640.744 708.462 641.38C710.055 642.482 711.265 644.041 711.679 645.93C711.524 646.754 711.408 647.351 710.811 647.993C706.825 652.276 693.303 652.654 687.616 653.435C686.283 653.526 685.02 653.584 683.827 652.905C682.573 652.192 681.895 651.088 681.626 649.69C681.362 648.316 681.577 647.378 682.47 646.274C685.292 642.786 699.975 641.909 705.002 641.187Z"/>
	<path fill="#FEFEFF" d="M659.286 648.214C660.743 648.105 662.032 647.972 663.34 648.814C664.409 649.502 665.169 650.768 665.358 652.016C665.527 653.134 665.12 654.243 664.459 655.131C663.76 656.072 662.859 656.663 661.768 657.048C657.938 658.402 653.215 658.602 649.177 659.207L624.001 662.986C622.102 663.281 619.81 663.742 618.085 662.587C617.207 662 616.759 661.061 616.562 660.056C616.25 658.47 616.276 656.879 617.411 655.599C619.961 652.721 653.317 648.896 659.286 648.214Z"/>
	<path fill="#FEFEFF" d="M710.317 668.203C712.083 668.009 713.591 667.903 715.293 668.519C716.772 669.054 717.589 669.763 718.258 671.214C718.379 672.641 718.272 673.643 717.398 674.81C716.034 676.633 713.663 677.61 711.516 678.132C705.51 679.593 698.664 679.826 692.482 680.709L647.198 687.329C645.192 687.575 643.274 688.039 641.491 686.801C640.413 686.053 639.686 685.009 639.495 683.697C639.295 682.329 639.76 681.43 640.657 680.438C642.02 678.93 644.498 678.254 646.397 677.811C654.719 675.87 663.728 675.236 672.203 673.945C684.866 672.017 697.575 669.489 710.317 668.203Z"/>
	<path fill="#FEBF28" d="M515.206 435.72C516.252 435.532 516.389 435.496 517.435 435.887C519.422 439.269 524.122 460.216 525.661 465.787L556.31 577.882C542.994 578.438 529.506 580.668 516.266 582.207L464.629 588.047C449.988 589.744 435.319 591.672 420.622 592.803C419.636 592.909 418.717 592.891 417.726 592.882C416.683 592.215 416.169 591.346 415.901 590.147C410.579 566.272 404.02 542.502 397.835 518.809C391.793 495.665 386.117 472.491 379.013 449.635C424.305 444.34 469.826 440.237 515.206 435.72Z"/>
	<path fill="#FEFEFF" d="M419.829 504.655C423.531 504.367 427.027 503.719 430.483 505.417C431.996 506.161 432.793 507.048 433.38 508.649C433.298 509.467 433.374 510.128 432.896 510.83C431.669 512.628 430.076 513.067 428.022 513.342C425.329 513.689 420.501 514.815 417.938 513.795C416.287 513.138 415.38 512.306 414.735 510.62C414.734 509.513 414.759 508.691 415.279 507.689C416.301 505.723 417.833 505.211 419.829 504.655Z"/>
	<path fill="#FEFEFF" d="M498.228 495.808C500.457 495.534 504.878 494.584 506.825 495.878C507.878 496.577 508.842 497.923 509.067 499.201C509.332 500.717 509.085 501.466 508.312 502.75C504.541 505.729 467.122 508.699 459.409 509.642C457.688 509.83 455.44 510.292 453.737 509.995C451.974 509.686 450.683 508.661 449.846 507.085C449.201 505.871 449.354 505.186 449.693 503.917C450.894 502.463 452.166 501.793 453.971 501.246C458.573 499.851 464.028 499.773 468.831 499.222L498.228 495.808Z"/>
	<path fill="#FEFEFF" d="M509.613 522.223C510.884 522.138 512.15 521.946 513.251 522.763C514.239 523.496 515.26 525.238 515.416 526.494C515.587 527.871 515.145 529.063 514.261 530.118C513.533 530.986 512.633 531.347 511.568 531.599C504.105 533.373 495.462 533.635 487.794 534.532Q459.926 537.752 432.022 540.65C430.656 540.619 429.041 540.73 427.848 539.961C426.385 539.017 425.723 537.551 425.407 535.909C425.568 535.021 425.675 534.304 426.299 533.597C427.349 532.406 428.919 531.841 430.422 531.501C439.052 529.552 448.834 529.203 457.669 528.138C474.933 526.058 492.28 523.588 509.613 522.223Z"/>
</svg>
